<svg width="42" height="42" viewBox="0 0 42 42" fill="none" xmlns="http://www.w3.org/2000/svg">
<path fill-rule="evenodd" clip-rule="evenodd" d="M38.999 31.8089C38.999 33.5434 37.5358 34.9402 35.7401 34.9402H28.0917L22.0489 39.6509C21.7639 39.8882 21.3933 39.9978 21.0418 39.9978C20.6807 39.9978 20.3197 39.8882 20.0252 39.6509L14.0204 34.9402H6.25793C4.46221 34.9402 2.99902 33.5434 2.99902 31.8089V11.1313C2.99902 9.40589 4.46221 8 6.25793 8H35.7401C37.5358 8 38.999 9.40589 38.999 11.1313V31.8089ZM5.88031 32.3961C5.86082 32.3961 5.84133 32.3676 5.84133 32.3486V10.8622C5.84133 10.8432 5.86082 10.8242 5.88031 10.8242H36.1181C36.1376 10.8242 36.1571 10.8432 36.1571 10.8622V32.3486C36.1571 32.3676 36.1376 32.3961 36.1181 32.3961H27.689C27.3089 32.3961 26.9484 32.5194 26.656 32.7565L21.0431 37.1772L15.4788 32.7565C15.1768 32.5194 14.8065 32.3961 14.4264 32.3961H5.88031Z" fill="#333333"/>
<path fill-rule="evenodd" clip-rule="evenodd" d="M15.0278 21.4761C15.0278 20.5266 14.2297 19.7598 13.2511 19.7598C12.2629 19.7598 11.4648 20.5266 11.4648 21.4761C11.4648 22.4164 12.2629 23.1832 13.2511 23.1832C14.2297 23.1832 15.0278 22.4164 15.0278 21.4761Z" fill="#333333"/>
<path fill-rule="evenodd" clip-rule="evenodd" d="M22.8247 21.4761C22.8247 20.5266 22.0266 19.7598 21.0479 19.7598C20.0598 19.7598 19.2617 20.5266 19.2617 21.4761C19.2617 22.4164 20.0598 23.1832 21.0479 23.1832C22.0266 23.1832 22.8247 22.4164 22.8247 21.4761Z" fill="#333333"/>
<path fill-rule="evenodd" clip-rule="evenodd" d="M30.6303 21.4761C30.6303 20.5266 29.8322 19.7598 28.8536 19.7598C27.8655 19.7598 27.0674 20.5266 27.0674 21.4761C27.0674 22.4164 27.8655 23.1832 28.8536 23.1832C29.8322 23.1832 30.6303 22.4164 30.6303 21.4761Z" fill="#333333"/>
</svg>
